<svg xmlns="http://www.w3.org/2000/svg" viewBox="0 0 68.16 136.02"><defs><style>.cls-1{fill:#1f1f1d;}</style></defs><title>Fichier 1</title><g id="Calque_2" data-name="Calque 2"><g id="Calque_1-2" data-name="Calque 1"><g id="DJH4Uq.tif"><path class="cls-1" d="M68.13,118.42c0,5.13,0,10.26,0,15.39,0,2.17,0,2.29-2.15,2.19-11.8-.54-22.93-3.51-33-9.75-17.26-10.68-28.3-25.93-31.78-46C-3,56.18,3.91,35.33,21.6,18.35,32.44,7.94,45.6,2.19,60.5.41c2.07-.24,4.16.1,6.23-.36,1-.21,1.42.22,1.42,1.29q0,16.23,0,32.47c0,1.25-.7,1.31-1.62,1.34A31,31,0,0,0,44.17,45.24c-9,9.65-11.63,21-7.3,33.5C41.15,91.05,50.15,98.25,63,100.52a17.43,17.43,0,0,0,3.53.31c1.28,0,1.63.47,1.62,1.7C68.1,107.83,68.13,113.13,68.13,118.42Z"/></g></g></g></svg>