<svg xmlns="http://www.w3.org/2000/svg" viewBox="0 0 166.06 126.14"><defs><style>.cls-1{fill:#1e1e1c;}</style></defs><title>Fichier 4</title><g id="Calque_2" data-name="Calque 2"><g id="Calque_1-2" data-name="Calque 1"><path class="cls-1" d="M83,0C37.17,0,0,28.24,0,63.07s37.17,63.07,83,63.07,83-28.24,83-63.07S128.89,0,83,0ZM99.21,91.22v-.17a52,52,0,0,1-32.35,0v.17C52.58,86.48,42.59,75.66,42.59,63.07s10-23.41,24.27-28.15v.17a52,52,0,0,1,32.35,0v-.17c14.28,4.74,24.26,15.56,24.26,28.15S113.49,86.48,99.21,91.22Z"/></g></g></svg>