<svg xmlns="http://www.w3.org/2000/svg" viewBox="0 0 97.56 136.23"><defs><style>.cls-1{fill:#1f1f1d;}</style></defs><title>Fichier 2</title><g id="Calque_2" data-name="Calque 2"><g id="Calque_1-2" data-name="Calque 1"><g id="DJH4Uq.tif"><path class="cls-1" d="M29.43,17.81c0-5.13,0-10.26,0-15.39,0-2.17,0-2.29,2.15-2.19,11.8.54,22.93,3.52,33,9.75,17.26,10.68,28.3,25.93,31.78,46,4.19,24.1-2.72,45-20.41,61.93C65.12,128.3,52,134,37.06,135.82c-2.07.25-4.16-.1-6.23.36-.95.21-1.42-.22-1.42-1.29q0-16.23,0-32.47c0-1.25.7-1.3,1.62-1.34A31,31,0,0,0,53.39,91c9-9.65,11.63-21,7.3-33.49S47.41,38,34.55,35.71A18.17,18.17,0,0,0,31,35.4c-1.28,0-1.63-.47-1.62-1.7C29.46,28.4,29.43,23.11,29.43,17.81Z"/></g><rect class="cls-1" width="32.35" height="136.23" transform="translate(32.35 136.23) rotate(180)"/></g></g></svg>